<svg width="112" height="72" viewBox="0 0 112 72" fill="none" xmlns="http://www.w3.org/2000/svg">
<path d="M15.073 27.3576V36.0705C15.073 36.7866 15.3052 37.2641 15.6536 37.6221C16.002 37.9802 16.4665 38.0995 17.1633 38.2189H19.7182V43.1124C16.1181 43.4705 13.6794 43.2318 12.1697 42.0382C10.6601 40.964 9.96329 38.935 9.96329 36.0705V27.3576H6.36328V22.2253H9.84716V18.0479L15.073 16.377V22.2253H19.7182V27.3576H15.073Z" fill="#333333"/>
<path d="M43.7548 32.7289C43.7548 29.6257 42.8258 26.9999 40.8516 24.8515C38.9935 22.7031 36.5548 21.6289 33.5355 21.6289C30.4 21.6289 27.8451 22.7031 25.8709 24.8515C23.8967 26.9999 22.8516 29.6257 22.8516 32.7289C22.8516 35.8321 23.8967 38.5773 25.8709 40.6063C27.9612 42.6354 30.6322 43.7096 34 43.7096C37.8322 43.7096 40.8516 42.2773 42.8258 39.2934L38.6451 36.787C37.6 38.0999 36.0903 38.816 34.1161 38.816C30.9806 38.816 29.1225 37.5031 28.4258 34.8773H43.7548C43.871 34.0418 43.9871 33.3257 43.7548 32.7289ZM28.3096 30.6999C28.658 29.387 29.2387 28.4321 30.0516 27.5966C30.9806 26.8805 32.1419 26.5225 33.5355 26.5225C34.8129 26.5225 35.858 26.8805 36.7871 27.5966C37.7161 28.3128 38.2968 29.387 38.6451 30.6999H28.3096Z" fill="#333333"/>
<path d="M54.093 12.6777V33.6842C52.4672 34.9971 50.7253 36.4293 48.8672 37.7423V12.6777H54.093Z" fill="#333333"/>
<path d="M65.3547 12.6777V23.4197C63.7289 25.0906 61.987 26.7616 60.1289 28.4326V12.6777H65.3547Z" fill="#333333"/>
<path d="M65.3547 34.1611V43.1127H60.1289V39.4127C61.987 37.7418 63.7289 35.9515 65.3547 34.1611Z" fill="#333333"/>
<path d="M70.2314 58.39C70.2314 55.2868 69.3024 52.661 67.3282 50.5126C65.4701 48.3642 63.0314 47.29 60.012 47.29C56.8765 47.29 54.3217 48.3642 52.3475 50.5126C50.3733 52.661 49.3281 55.2868 49.3281 58.39C49.3281 61.4933 50.3733 64.2384 52.3475 66.2675C54.4378 68.2965 57.1088 69.3707 60.4765 69.3707C64.3088 69.3707 67.3282 67.9384 69.3024 64.9546L65.1217 62.4481C64.0765 63.761 62.5669 64.4771 60.5927 64.4771C57.4572 64.4771 55.5991 63.1642 54.9023 60.5384H70.2314C70.3475 59.7029 70.4637 58.9868 70.2314 58.39ZM54.7862 56.361C55.1346 55.0481 55.7152 54.0933 56.5281 53.2578C57.4572 52.5417 58.6185 52.1836 60.012 52.1836C61.2894 52.1836 62.3346 52.5417 63.2636 53.2578C64.1927 53.9739 64.7733 55.0481 65.1217 56.361H54.7862Z" fill="#333333"/>
<path d="M105.42 56.0027V68.8931H100.194V56.3608C100.194 55.1672 99.846 54.0931 99.2653 53.4963C98.6847 52.7802 97.8718 52.4221 96.7105 52.4221C95.5492 52.4221 94.6202 52.7801 93.9234 53.6156C93.2266 54.4511 92.8782 55.6447 92.8782 57.0769V68.7737H87.7685V56.3608C87.7685 55.1672 87.4201 54.0931 86.8395 53.4963C86.2588 52.7802 85.4459 52.4221 84.2846 52.4221C83.1234 52.4221 82.1943 52.7801 81.4975 53.6156C80.8008 54.4511 80.4524 55.6447 80.4524 57.0769V68.7737H75.2266V47.8866H80.4524V50.1543C81.6137 48.2447 83.5879 47.4092 86.1427 47.4092C88.6976 47.4092 90.5556 48.364 91.7169 50.3931C92.9943 48.364 95.0847 47.4092 97.7556 47.4092C100.078 47.4092 101.936 48.2447 103.33 49.7963C104.723 51.3479 105.42 53.4963 105.42 56.0027Z" fill="#333333"/>
<path d="M72.5565 20.6746C72.3243 21.0327 72.092 21.2714 71.9759 21.6295C70.0017 24.494 67.7952 27.2391 65.4726 29.8649C63.8468 31.6553 62.1049 33.5649 60.2468 35.3553C58.3888 37.2649 56.4146 39.1746 54.2081 41.0843C53.3952 41.8004 52.6984 42.3972 51.8855 43.1133C50.2597 44.5456 48.6339 45.9778 46.7758 47.4101C45.9629 48.0069 44.8016 47.8875 44.221 47.052C43.6403 46.2166 43.8726 45.1424 44.6855 44.5456C46.1952 43.4714 47.5887 42.5166 48.8662 41.4424C50.7242 40.1295 52.4662 38.8166 54.092 37.5037C56.1823 35.8327 58.2726 34.1617 60.1307 32.4908C61.9888 30.9391 63.7307 29.2682 65.3565 27.7166C67.7952 25.3295 70.0017 22.9424 72.092 20.4359C72.3243 20.0778 72.6727 20.3166 72.5565 20.6746Z" fill="#29AAEC"/>
<path fill-rule="evenodd" clip-rule="evenodd" d="M88.1176 3.12891C85.9112 9.69342 83.7047 16.2579 81.3821 22.8225C80.5692 21.5096 79.7563 20.1966 78.9434 18.8837C78.7112 18.4063 78.3628 17.9289 78.0144 17.4515C77.666 16.8547 77.3176 16.2579 76.9692 15.6612L82.5434 9.216L83.7047 7.9031C83.4725 8.02245 83.2402 8.26116 83.0079 8.38052C81.4983 9.33536 79.9886 10.4096 78.4789 11.4837C77.3176 12.3192 76.0402 13.1547 74.8789 13.9902L73.9499 13.5128L69.3047 10.887C72.2079 9.69342 75.2273 8.49987 78.1305 7.30633C80.337 6.35149 82.5434 5.516 84.7499 4.68052C85.7951 4.08375 86.9563 3.60633 88.1176 3.12891Z" fill="#29AAEC"/>
</svg>
