<svg width="400" height="200" viewBox="0 0 415 111" fill="none" xmlns="http://www.w3.org/2000/svg">
    <g clip-path="url(#clip0_83_100)">
        <path d="M19.9079 53.5248V74.3622C19.9079 76.0034 20.4388 77.0974 21.2351 77.918C22.0314 78.7386 23.0931 79.0121 24.6858 79.2856H30.5254V90.5C22.2968 91.3206 16.7226 90.7735 13.2719 88.0383C9.82122 85.5766 8.22859 80.9267 8.22859 74.3622V53.5248H0V41.7633H7.96315V32.1901L19.9079 28.3608V41.7633H30.5254V53.5248H19.9079Z"
              fill="white"/>
        <path d="M85.9913 65.4375C85.9913 58.3259 83.8678 52.3085 79.3553 47.3851C75.1083 42.4617 69.5341 40 62.6327 40C55.4659 40 49.6262 42.4617 45.1138 47.3851C40.6013 52.3085 38.2124 58.3259 38.2124 65.4375C38.2124 72.5491 40.6013 78.8401 45.1138 83.4899C49.8917 88.1398 55.9968 90.6015 63.6945 90.6015C72.4539 90.6015 79.3553 87.3192 83.8678 80.4812L74.312 74.7372C71.9231 77.746 68.4724 79.3871 63.9599 79.3871C56.7931 79.3871 52.5461 76.3784 50.9534 70.3609H85.9913C85.9913 67.7971 85.9913 66.7971 85.9913 65.4375ZM50.688 60.7876C51.4843 57.7789 52.8115 55.5907 54.6696 53.6761C56.7931 52.0349 59.4474 51.2144 62.6327 51.2144C65.5525 51.2144 67.9415 52.0349 70.065 53.6761C72.1885 55.3172 73.5157 57.7789 74.312 60.7876H50.688Z"
              fill="white"/>
        <path d="M109.095 58V20H97.1506V69.2997L109.095 58Z" fill="white"/>
        <path d="M134.306 38L134.842 20H122.897L122.361 49.2997L134.306 38Z" fill="white"/>
        <path d="M134.842 91V65L122.897 77.035V91H134.842Z" fill="white"/>
        <path d="M193.779 65.4375C193.779 58.3259 191.655 52.3085 187.143 47.3851C182.896 42.4617 177.322 40 170.42 40C163.253 40 157.414 42.4617 152.901 47.3851C148.389 52.3085 146 58.3259 146 65.4375C146 72.5491 148.389 78.8401 152.901 83.4899C157.679 88.1398 163.784 90.6015 171.482 90.6015C180.242 90.6015 187.143 87.3192 191.655 80.4812L182.1 74.7372C179.711 77.746 176.26 79.3871 171.748 79.3871C164.581 79.3871 160.334 76.3784 158.741 70.3609H193.779C193.779 67.7971 193.779 66.7971 193.779 65.4375ZM158.476 60.7876C159.272 57.7789 160.599 55.5907 162.457 53.6761C164.581 52.0349 167.235 51.2144 170.42 51.2144C173.34 51.2144 175.729 52.0349 177.853 53.6761C179.976 55.3172 181.303 57.7789 182.1 60.7876H158.476Z"
              fill="white"/>
        <path d="M273.793 59.6935V90.5236H261.848V60.5141C261.848 57.7789 261.052 55.3172 259.725 53.9496C258.397 52.3085 256.539 51.4879 253.885 51.4879C251.231 51.4879 249.107 52.3085 247.515 54.2231C245.922 56.1378 245.126 58.873 245.126 62.1552V90.5236H233.446V60.5141C233.446 57.7789 232.65 55.3172 231.323 53.9496C229.996 52.3085 228.138 51.4879 225.483 51.4879C222.829 51.4879 220.705 52.3085 219.113 54.2231C217.52 56.1378 216.724 58.873 216.724 62.1552V90.5236H204.779V40H216.724V46.291C219.378 41.9147 223.89 40 229.73 40C235.57 40 239.817 42.1882 242.471 46.838C245.391 42.1882 250.169 40 256.274 40C261.583 40 265.83 41.9146 269.015 45.4704C272.2 49.0262 273.793 53.9496 273.793 59.6935Z"
              fill="white"/>
        <path d="M136.168 52.8088C142.322 45.8446 149.708 36.0315 154.939 28.4342C155.247 27.4845 154.323 26.8514 153.708 27.8011C148.169 34.4487 142.322 40.7797 135.86 47.1108C131.552 51.226 126.936 55.6577 122.013 59.7729C117.089 64.2045 111.55 68.6366 106.011 73.0682C101.703 76.5502 97.0871 80.0323 92.1636 83.5144C88.7786 86.3634 85.086 88.8958 81.0856 91.7448C78.9315 93.3276 78.3161 96.1765 79.8547 98.3924C81.3933 100.608 84.4705 100.925 86.6246 99.3421C91.5481 95.5434 95.8562 91.7448 100.164 87.9462C102.318 86.0468 104.165 84.4641 106.319 82.5648C112.166 77.4999 117.397 72.4351 122.32 67.3702C127.244 62.6219 131.86 57.5571 136.168 52.8088Z"
              fill="#5B7CA8"/>
        <path d="M167.803 34.4161C169.927 22.9228 171.856 11.4614 173.785 0L144.302 17.9926L154.498 21.5947C156.222 19.8944 165.945 10.8066 167.668 9.10624L158.459 23.7844L167.803 34.4161Z"
              fill="#5B7CA8"/>
        <path d="M289.783 90.7074C288.625 90.7074 287.639 90.3001 286.824 89.4853C286.009 88.6706 285.602 87.6844 285.602 86.5266C285.602 85.3689 286.009 84.3827 286.824 83.5679C287.639 82.7532 288.625 82.3459 289.783 82.3459C290.983 82.3459 291.97 82.7532 292.741 83.5679C293.556 84.3827 293.963 85.3689 293.963 86.5266C293.963 87.6844 293.556 88.6706 292.741 89.4853C291.97 90.3001 290.983 90.7074 289.783 90.7074Z"
              fill="white"/>
        <path d="M320.792 91.384C317.421 91.384 314.648 90.6373 312.472 89.144C310.296 87.608 308.675 85.56 307.608 83C306.541 80.3973 306.008 77.4747 306.008 74.232C306.008 70.9893 306.541 68.0667 307.608 65.464C308.675 62.8187 310.317 60.728 312.536 59.192C314.755 57.656 317.592 56.888 321.048 56.888C322.371 56.888 323.693 57.0587 325.016 57.4C326.381 57.6987 327.661 58.1893 328.856 58.872C330.051 59.512 331.075 60.3867 331.928 61.496V45.752H337.368V91H332.184L331.928 85.944C331.16 87.224 330.179 88.2693 328.984 89.08C327.832 89.848 326.552 90.424 325.144 90.808C323.736 91.192 322.285 91.384 320.792 91.384ZM321.56 86.584C323.821 86.584 325.72 86.008 327.256 84.856C328.792 83.704 329.965 82.168 330.776 80.248C331.587 78.328 331.992 76.2373 331.992 73.976C331.992 71.6293 331.587 69.5387 330.776 67.704C330.008 65.8693 328.856 64.4187 327.32 63.352C325.784 62.2853 323.843 61.752 321.496 61.752C319.064 61.752 317.101 62.3067 315.608 63.416C314.157 64.5253 313.091 66.04 312.408 67.96C311.768 69.8373 311.448 71.9493 311.448 74.296C311.448 76.0027 311.619 77.6027 311.96 79.096C312.344 80.5467 312.92 81.848 313.688 83C314.499 84.1093 315.544 84.984 316.824 85.624C318.104 86.264 319.683 86.584 321.56 86.584ZM360.633 91.384C357.092 91.384 354.126 90.6587 351.737 89.208C349.348 87.7147 347.556 85.6667 346.361 83.064C345.209 80.4613 344.633 77.496 344.633 74.168C344.633 70.7973 345.23 67.832 346.425 65.272C347.62 62.6693 349.412 60.6213 351.801 59.128C354.19 57.6347 357.177 56.888 360.761 56.888C364.302 56.888 367.246 57.6347 369.593 59.128C371.982 60.6213 373.753 62.6693 374.905 65.272C376.1 67.832 376.697 70.7973 376.697 74.168C376.697 77.496 376.1 80.4613 374.905 83.064C373.71 85.6667 371.918 87.7147 369.529 89.208C367.182 90.6587 364.217 91.384 360.633 91.384ZM360.633 86.584C363.108 86.584 365.113 86.0293 366.649 84.92C368.228 83.8107 369.38 82.3173 370.105 80.44C370.873 78.5627 371.257 76.472 371.257 74.168C371.257 71.864 370.873 69.7733 370.105 67.896C369.38 66.0187 368.228 64.5253 366.649 63.416C365.113 62.3067 363.108 61.752 360.633 61.752C358.201 61.752 356.196 62.3067 354.617 63.416C353.081 64.5253 351.929 66.0187 351.161 67.896C350.436 69.7733 350.073 71.864 350.073 74.168C350.073 76.472 350.436 78.5627 351.161 80.44C351.929 82.3173 353.081 83.8107 354.617 84.92C356.196 86.0293 358.201 86.584 360.633 86.584ZM398.376 91.384C394.834 91.384 391.89 90.6587 389.544 89.208C387.24 87.7147 385.512 85.6667 384.36 83.064C383.25 80.4613 382.696 77.5173 382.696 74.232C382.696 71.032 383.272 68.1307 384.424 65.528C385.618 62.8827 387.41 60.792 389.8 59.256C392.232 57.6773 395.304 56.888 399.016 56.888C401.32 56.888 403.368 57.272 405.16 58.04C406.994 58.808 408.509 59.9387 409.704 61.432C410.898 62.8827 411.73 64.7173 412.2 66.936H406.632C405.992 65.0587 404.968 63.736 403.56 62.968C402.194 62.1573 400.573 61.752 398.696 61.752C396.136 61.752 394.088 62.3493 392.552 63.544C391.016 64.7387 389.885 66.296 389.16 68.216C388.477 70.0933 388.135 72.0987 388.135 74.232C388.135 76.4507 388.498 78.4987 389.224 80.376C389.949 82.2533 391.08 83.768 392.616 84.92C394.152 86.0293 396.136 86.584 398.568 86.584C400.36 86.584 402.045 86.2 403.624 85.432C405.245 84.664 406.312 83.2987 406.824 81.336H412.456C412.029 83.64 411.112 85.5387 409.704 87.032C408.338 88.5253 406.653 89.6347 404.648 90.36C402.685 91.0427 400.594 91.384 398.376 91.384Z"
              fill="white"/>
    </g>
    <defs>
        <clipPath id="clip0_83_100">
            <rect width="415" height="111" fill="white"/>
        </clipPath>
    </defs>
</svg>
